# xmcd CD database file
#
# Track frame offsets:
#	150
#	17394
#	36319
#	51684
#	71030
#	98233
#	114862
#	134969
#	155078
#	169832
#
# Disc length: 2640 seconds
#
# Revision: 5
# Processed by: cddbd v1.5.1PL2 Copyright (c) Steve Scherf et al.
# Submitted via: CDex 1.51
#
DISCID=910a4e0a
DTITLE=ACCEPT - Restless And Wild
DYEAR=1983
DGENRE=Heavy Metal
TTITLE0=Fast As A Shark
TTITLE1=Restless And Wild
TTITLE2=Ahead Of The Pack
TTITLE3=Shake Your Heads
TTITLE4=Neon Nights
TTITLE5=Get Ready
TTITLE6=Demon Night
TTITLE7=Flash Rockin' Man
TTITLE8=Don't Go Stealing My Soul Away
TTITLE9=Princess Of The Dawn
EXTD=YEAR: 1983
EXTT0=
EXTT1=
EXTT2=
EXTT3=
EXTT4=
EXTT5=
EXTT6=
EXTT7=
EXTT8=
EXTT9=
PLAYORDER=
